<svg width="13" height="13" viewBox="0 0 13 13" fill="none" xmlns="http://www.w3.org/2000/svg">
<mask id="mask0_1_398" style="mask-type:luminance" maskUnits="userSpaceOnUse" x="0" y="0" width="13" height="13">
<path d="M13 0H0V13H13V0Z" fill="white"/>
</mask>
<g mask="url(#mask0_1_398)">
<path fill-rule="evenodd" clip-rule="evenodd" d="M7.961 0C9.41247 0.350973 10.7016 1.18465 11.6172 2.36437C12.5327 3.54408 13.0203 4.99984 13 6.493C13.0213 7.98801 12.5344 9.44596 11.6189 10.6281C10.7035 11.8102 9.41378 12.6465 7.961 13V11.472C9.01633 11.1404 9.93619 10.4766 10.5833 9.57947C11.2305 8.68234 11.5703 7.60003 11.552 6.494C11.5683 5.38985 11.2276 4.30996 10.5805 3.41513C9.93346 2.5203 9.01468 1.85841 7.961 1.528V0ZM9.761 6.493C9.76745 7.10948 9.60257 7.71565 9.28475 8.24393C8.96694 8.77222 8.50866 9.20187 7.961 9.485V3.514C8.50822 3.79423 8.96652 4.22142 9.28447 4.74763C9.60242 5.27383 9.76744 5.87823 9.761 6.493ZM0 4.278H2.885L6.5 0.547V12.44L2.885 8.722H0V4.278Z" fill="white"/>
</g>
<path d="M7.95996 11.471C9.00493 11.1246 9.91426 10.4578 10.5587 9.56531C11.2032 8.67277 11.55 7.5999 11.55 6.49902C11.55 5.39814 11.2032 4.32521 10.5587 3.43268C9.91426 2.54014 9.00493 1.87334 7.95996 1.52698V0C9.40238 0.3705 10.6807 1.21025 11.5934 2.38702C12.5061 3.5638 13.0015 5.01076 13.0015 6.5C13.0015 7.98924 12.5061 9.4362 11.5934 10.613C10.6807 11.7898 9.40238 12.6295 7.95996 13V11.471ZM2.88403 8.72101H0V4.27698H2.88403L6.49902 0.546997V12.44L2.88403 8.72101ZM7.95996 3.513C8.50204 3.8009 8.9556 4.23092 9.27185 4.75696C9.5881 5.283 9.75513 5.88524 9.75513 6.49902C9.75513 7.11281 9.5881 7.71499 9.27185 8.24103C8.9556 8.76707 8.50204 9.19709 7.95996 9.48499V3.513Z" fill="#4361EE"/>
</svg>
