<svg width="24" height="29" viewBox="0 0 24 29" fill="none" xmlns="http://www.w3.org/2000/svg">
<mask id="mask0_1_222" style="mask-type:luminance" maskUnits="userSpaceOnUse" x="0" y="0" width="24" height="29">
<path d="M24 0H0V29H24V0Z" fill="white"/>
</mask>
<g mask="url(#mask0_1_222)">
<path fill-rule="evenodd" clip-rule="evenodd" d="M21.475 20.073L24.475 23.083V24.537H0.474976V23.083L3.50398 20.073V12.673C3.50398 8.082 5.96798 4.333 10.23 3.287V2.245C10.23 1.64932 10.4666 1.07805 10.8878 0.656839C11.309 0.235632 11.8803 -0.000999451 12.476 -0.000999451C13.0717 -0.000999451 13.6429 0.235632 14.0641 0.656839C14.4853 1.07805 14.722 1.64932 14.722 2.245V3.291C19.008 4.337 21.475 8.162 21.475 12.677V20.073ZM12.488 29C12.0964 29.0069 11.7072 28.9364 11.3429 28.7926C10.9785 28.6489 10.6461 28.4346 10.3648 28.1621C10.0834 27.8897 9.85853 27.5644 9.70309 27.2048C9.54766 26.8453 9.4647 26.4586 9.45898 26.067H15.491C15.4735 26.851 15.1497 27.5969 14.589 28.1451C14.0282 28.6933 13.2752 29.0002 12.491 29" fill="white"/>
</g>
<path d="M11.938 29C11.16 28.9946 10.4151 28.6846 9.86292 28.1366C9.31074 27.5885 8.99523 26.8459 8.984 26.068H15.016C14.9987 26.84 14.6844 27.5756 14.1384 28.1217C13.5925 28.6679 12.857 28.9824 12.085 29H11.938ZM0 24.537V23.083L3.028 20.073V12.673C3.028 8.082 5.492 4.334 9.754 3.288V2.246C9.754 1.65032 9.99063 1.07904 10.4118 0.657838C10.833 0.236631 11.4043 0 12 0C12.5957 0 13.167 0.236631 13.5882 0.657838C14.0094 1.07904 14.246 1.65032 14.246 2.246V3.291C18.533 4.337 21 8.162 21 12.677V20.077L24 23.087V24.541L0 24.537Z" fill="#4361EE"/>
</svg>
