<svg width="13" height="13" viewBox="0 0 13 13" fill="none" xmlns="http://www.w3.org/2000/svg">
<path d="M10.152 0.00899887H2.95195C2.25619 0.0100584 1.58928 0.287194 1.09768 0.77955C0.606071 1.2719 0.329952 1.93923 0.329953 2.635C0.329953 3.33146 0.60662 3.99939 1.09909 4.49186C1.59156 4.98433 2.25949 5.261 2.95595 5.261H4.02495L0.768953 8.517C0.525065 8.76085 0.331601 9.05036 0.199608 9.36898C0.0676146 9.68761 -0.000322342 10.0291 -0.000322342 10.374C-0.000322342 10.7189 0.0676146 11.0604 0.199608 11.379C0.331601 11.6976 0.525065 11.9871 0.768953 12.231C1.0128 12.4749 1.30231 12.6684 1.62094 12.8003C1.93956 12.9323 2.28107 13.0003 2.62595 13.0003C2.97084 13.0003 3.31234 12.9323 3.63097 12.8003C3.9496 12.6684 4.2391 12.4749 4.48295 12.231L7.73895 8.975V10.044C7.73895 10.7405 8.01562 11.4084 8.50809 11.9009C9.00056 12.3933 9.66849 12.67 10.365 12.67C11.0614 12.67 11.7293 12.3933 12.2218 11.9009C12.7143 11.4084 12.991 10.7405 12.991 10.044V2.844C13.0233 2.46357 12.9721 2.08066 12.841 1.72207C12.7099 1.36349 12.502 1.03787 12.232 0.767999C11.9617 0.497509 11.6356 0.28941 11.2765 0.158294C10.9174 0.0271778 10.5339 -0.023778 10.153 0.00899887" fill="white"/>
</svg>
