<svg width="14" height="10" viewBox="0 0 14 10" fill="none" xmlns="http://www.w3.org/2000/svg">
<mask id="mask0_1_241" style="mask-type:luminance" maskUnits="userSpaceOnUse" x="0" y="0" width="14" height="10">
<path d="M14 0H0V10H14V0Z" fill="white"/>
</mask>
<g mask="url(#mask0_1_241)">
<path fill-rule="evenodd" clip-rule="evenodd" d="M6.995 3.009C7.51038 3.02418 7.9991 3.24152 8.35556 3.61407C8.71201 3.98662 8.90758 4.48445 8.9 5C8.90919 5.51687 8.71442 6.01656 8.35788 6.39089C8.00134 6.76521 7.51171 6.98404 6.995 7C6.47855 6.98277 5.98947 6.76361 5.63287 6.38963C5.27628 6.01564 5.08064 5.51669 5.088 5C5.08224 4.48464 5.27868 3.98754 5.63519 3.61533C5.99169 3.24312 6.47987 3.02545 6.995 3.009ZM6.995 8.341C7.8611 8.32054 8.68368 7.95723 9.28215 7.33083C9.88062 6.70442 10.2061 5.86613 10.187 5C10.2061 4.13387 9.88062 3.29558 9.28215 2.66917C8.68368 2.04277 7.8611 1.67946 6.995 1.659C6.13048 1.68154 5.31014 2.04583 4.71371 2.67206C4.11728 3.2983 3.79339 4.13541 3.813 5C3.79339 5.86459 4.11728 6.7017 4.71371 7.32794C5.31014 7.95417 6.13048 8.31846 6.995 8.341ZM6.995 0C8.53344 0.0185748 10.0293 0.50765 11.2816 1.40149C12.5339 2.29533 13.4825 3.5511 14 5C13.4845 6.45017 12.5363 7.70721 11.2836 8.60136C10.0309 9.49551 8.53399 9.9837 6.995 10C5.45762 9.98209 3.9627 9.49312 2.7119 8.59905C1.4611 7.70498 0.514574 6.44882 0 5C0.51654 3.55244 1.46356 2.29755 2.71393 1.40379C3.96431 0.510029 5.45817 0.0201794 6.995 0Z" fill="white"/>
</g>
</svg>
