<svg width="196" height="49" viewBox="0 0 196 49" fill="none" xmlns="http://www.w3.org/2000/svg">
<mask id="mask0_1_165" style="mask-type:luminance" maskUnits="userSpaceOnUse" x="0" y="0" width="196" height="49">
<path d="M196 0H0V49H196V0Z" fill="white"/>
</mask>
<g mask="url(#mask0_1_165)">
<path d="M79.66 33.27C80.801 33.4156 81.9498 33.4924 83.1 33.5C84.1692 33.5812 85.2336 33.2904 86.113 32.677C86.4714 32.3309 86.747 31.9083 86.9193 31.4408C87.0915 30.9733 87.1561 30.4729 87.108 29.977C87.1358 29.3423 87.028 28.7089 86.792 28.119C86.5817 27.6724 86.2341 27.3049 85.8 27.07C85.1613 26.7453 84.4912 26.4867 83.8 26.298L81.4 25.509C79.9424 25.2028 78.624 24.4306 77.644 23.309C76.7483 22.1555 76.2903 20.7221 76.351 19.263C76.2867 18.4625 76.3895 17.6574 76.6529 16.8987C76.9163 16.14 77.3345 15.4444 77.881 14.856C79.1898 13.794 80.8568 13.276 82.537 13.409C84.7383 13.3756 86.9314 13.686 89.037 14.329L88.879 16.795C87.8897 16.595 86.8797 16.4363 85.849 16.319C84.9591 16.2081 84.0637 16.148 83.167 16.139C82.1491 16.0518 81.1306 16.3001 80.267 16.846C79.9377 17.177 79.6872 17.5779 79.5341 18.0191C79.3811 18.4602 79.3294 18.9302 79.383 19.394C79.3535 19.7783 79.4026 20.1646 79.5274 20.5293C79.6523 20.894 79.8502 21.2294 80.109 21.515C80.7427 22.0664 81.5007 22.4559 82.318 22.65L85.001 23.537C86.4653 23.91 87.8045 24.6647 88.882 25.724C89.7792 26.8671 90.2181 28.3036 90.113 29.753C90.1853 30.6421 90.0694 31.5365 89.7729 32.3779C89.4763 33.2192 89.0058 33.9887 88.392 34.636C86.9159 35.8093 85.0498 36.3792 83.17 36.231C81.9763 36.2358 80.7841 36.1479 79.604 35.968C78.4334 35.7807 77.2743 35.5279 76.132 35.211L76.321 32.711C77.4259 32.9534 78.5423 33.1399 79.666 33.27" fill="white"/>
<path d="M96.433 17.765C96.8085 16.4443 97.6789 15.3192 98.863 14.624C100.666 13.6905 102.691 13.2696 104.717 13.407C106.74 13.2721 108.76 13.6988 110.556 14.64C111.746 15.341 112.621 16.4723 113 17.8C113.387 19.4425 113.562 21.1279 113.521 22.815V26.794C113.58 28.626 113.356 30.456 112.858 32.22C112.651 32.8675 112.319 33.468 111.881 33.987C111.442 34.5061 110.905 34.9336 110.301 35.245C108.546 36.0233 106.632 36.3729 104.715 36.265C102.794 36.371 100.875 36.0215 99.115 35.245C98.5101 34.9389 97.9724 34.515 97.5335 33.9983C97.0946 33.4816 96.7633 32.8824 96.559 32.236C96.0699 30.4647 95.8515 28.6296 95.911 26.793V22.813C95.8686 21.115 96.0447 19.4185 96.433 17.765ZM99.32 30.771C99.4335 31.2011 99.6351 31.6029 99.9121 31.951C100.189 32.2991 100.535 32.5858 100.929 32.793C103.368 33.6922 106.048 33.6922 108.487 32.793C108.884 32.5881 109.234 32.3023 109.514 31.954C109.793 31.6058 109.997 31.2028 110.112 30.771C110.403 29.51 110.531 28.2166 110.491 26.923V22.648C110.521 21.4453 110.415 20.243 110.175 19.064C110.068 18.6274 109.875 18.2166 109.607 17.8559C109.338 17.4952 109 17.1919 108.613 16.964C107.379 16.4425 106.053 16.1739 104.713 16.1739C103.373 16.1739 102.047 16.4425 100.813 16.964C100.427 17.1903 100.089 17.4916 99.821 17.8502C99.5528 18.2088 99.359 18.6174 99.251 19.052C99.0099 20.2362 98.9039 21.4439 98.935 22.652V26.927C98.8953 28.2206 99.0226 29.514 99.314 30.775" fill="white"/>
<path d="M134.635 13.736H137.635V35.9H131.481L125.01 16.5H123.969V35.9H120.969V13.736H127.281L133.719 33.136H134.634L134.635 13.736Z" fill="white"/>
<path d="M145.633 17.765C146.008 16.4441 146.879 15.3189 148.063 14.624C149.866 13.6905 151.891 13.2696 153.917 13.407C155.939 13.2719 157.96 13.6986 159.755 14.64C160.945 15.3407 161.821 16.472 162.2 17.8C162.587 19.4425 162.762 21.1279 162.721 22.815V26.794C162.78 28.626 162.556 30.456 162.058 32.22C161.851 32.8675 161.519 33.468 161.081 33.987C160.642 34.5061 160.105 34.9336 159.501 35.245C155.896 36.6044 151.918 36.6044 148.313 35.245C147.708 34.9386 147.17 34.5147 146.731 33.998C146.292 33.4814 145.961 32.8823 145.756 32.236C145.268 30.4645 145.05 28.6295 145.109 26.793V22.813C145.067 21.115 145.242 19.4185 145.63 17.765M148.518 30.771C148.631 31.2014 148.832 31.6035 149.109 31.9516C149.386 32.2998 149.733 32.5863 150.127 32.793C152.566 33.6922 155.246 33.6922 157.685 32.793C158.082 32.5881 158.432 32.3023 158.712 31.954C158.991 31.6058 159.195 31.2028 159.31 30.771C159.601 29.51 159.729 28.2166 159.689 26.923V22.648C159.719 21.4453 159.613 20.243 159.373 19.064C159.266 18.6274 159.073 18.2166 158.805 17.8559C158.536 17.4952 158.198 17.1919 157.811 16.964C156.577 16.4425 155.251 16.1739 153.911 16.1739C152.571 16.1739 151.245 16.4425 150.011 16.964C149.625 17.1903 149.287 17.4916 149.019 17.8502C148.751 18.2088 148.557 18.6174 148.449 19.052C148.208 20.2362 148.102 21.4439 148.133 22.652V26.927C148.093 28.2206 148.22 29.5141 148.512 30.775" fill="white"/>
<path d="M184.292 25.344C183.9 25.8394 183.405 26.2432 182.841 26.5274C182.277 26.8115 181.657 26.969 181.026 26.989V27.153C183.781 27.5483 185.16 29.0723 185.161 31.725V35.9H182.194V32.185C182.235 31.6923 182.164 31.1967 181.987 30.7353C181.809 30.2739 181.529 29.8588 181.168 29.521C180.389 28.9195 179.421 28.6162 178.438 28.666H173.168V35.9H170.168V13.736H179.068C180.288 13.6894 181.506 13.8848 182.65 14.311C183.521 14.6726 184.225 15.3472 184.623 16.202C185.091 17.3256 185.306 18.5381 185.254 19.754V21.168C185.356 22.6248 185.021 24.0789 184.291 25.344M173.167 25.97H178.437C179.486 26.0653 180.532 25.753 181.357 25.098C182.065 24.1757 182.388 23.0145 182.257 21.859V20.116C182.373 19.0995 182.086 18.078 181.457 17.271C180.612 16.6633 179.573 16.3885 178.538 16.499H173.173L173.167 25.97Z" fill="white"/>
<path d="M195.922 13.736H192.924V35.901H195.922V13.736Z" fill="white"/>
<path d="M80.353 46.464L79.984 45.017H77.332L76.963 46.464H76.088L77.7 40.132H79.612L81.226 46.464H80.353ZM77.531 44.228H79.785L78.929 40.9H78.38L77.531 44.228Z" fill="white"/>
<path d="M84.744 43.927V42.387C84.4832 42.2583 84.1968 42.19 83.906 42.187C83.6288 42.1684 83.352 42.2269 83.106 42.356C82.9407 42.4577 82.8211 42.6192 82.772 42.807C82.7185 43.054 82.6947 43.3064 82.701 43.559V44.452C82.6941 44.7048 82.7213 44.9575 82.782 45.203C82.8356 45.3895 82.9577 45.5489 83.124 45.649C83.3626 45.7732 83.6305 45.8303 83.899 45.814C84.389 45.8133 84.8769 45.7501 85.351 45.626L85.377 46.312C85.1607 46.3887 84.9377 46.4453 84.711 46.481C84.428 46.5305 84.1413 46.5556 83.854 46.556C83.4208 46.5813 82.9883 46.4974 82.596 46.312C82.321 46.1624 82.1154 45.9111 82.023 45.612C81.9152 45.2122 81.8667 44.7988 81.879 44.385V43.625C81.8684 43.2258 81.9091 42.8269 82 42.438C82.0836 42.1381 82.2804 41.8825 82.549 41.725C82.9503 41.5202 83.3994 41.4276 83.849 41.457C84.1392 41.459 84.4277 41.5018 84.706 41.584C84.9563 41.6511 85.1979 41.7471 85.426 41.87L85.417 43.928L84.744 43.927Z" fill="white"/>
<path d="M90.206 44.293H87.241V44.519C87.2341 44.7623 87.2614 45.0053 87.322 45.241C87.3475 45.33 87.3907 45.4129 87.449 45.4849C87.5072 45.5569 87.5793 45.6164 87.661 45.66C87.8986 45.771 88.1601 45.8212 88.422 45.806C88.9387 45.8114 89.4539 45.7482 89.954 45.618L89.981 46.318C89.7588 46.4012 89.5291 46.4625 89.295 46.501C89.0059 46.5456 88.7135 46.566 88.421 46.562C87.967 46.5914 87.5136 46.4971 87.109 46.289C86.8339 46.1298 86.6306 45.8709 86.541 45.566C86.4433 45.1795 86.3993 44.7815 86.41 44.383V43.622C86.3991 43.2213 86.4462 42.8212 86.55 42.434C86.6405 42.1331 86.8417 41.8776 87.113 41.719C87.4943 41.5244 87.9207 41.4353 88.348 41.461C88.7854 41.4282 89.2217 41.5365 89.593 41.77C89.8483 41.9546 90.0289 42.2246 90.102 42.531C90.1762 42.9023 90.2097 43.2805 90.202 43.659L90.206 44.293ZM87.241 43.654H89.441V43.476C89.4456 43.2539 89.4261 43.0319 89.383 42.814C89.3389 42.6356 89.2325 42.4788 89.083 42.372C88.8642 42.2332 88.6064 42.1687 88.348 42.188C88.0989 42.1711 87.8502 42.2267 87.632 42.348C87.4761 42.4489 87.3634 42.6044 87.316 42.784C87.2583 43.0225 87.2324 43.2677 87.239 43.513L87.241 43.654Z" fill="white"/>
<path d="M92.642 45.815C92.8609 45.8336 93.0795 45.7752 93.26 45.65C93.3284 45.5845 93.3814 45.5045 93.4149 45.4159C93.4485 45.3274 93.4618 45.2324 93.454 45.138C93.464 44.9732 93.4194 44.8098 93.327 44.673C93.2193 44.5477 93.0787 44.4552 92.921 44.406L92.047 44.114C91.7686 44.0321 91.527 43.8566 91.3631 43.6172C91.1991 43.3778 91.1228 43.0892 91.147 42.8C91.1358 42.6199 91.1607 42.4393 91.2202 42.2689C91.2798 42.0986 91.3729 41.9418 91.494 41.808C91.638 41.6811 91.806 41.5845 91.9882 41.5241C92.1703 41.4636 92.3627 41.4404 92.554 41.456C93.0495 41.447 93.5439 41.5069 94.023 41.634L94 42.32C93.5617 42.2231 93.1139 42.1758 92.665 42.179C92.1837 42.179 91.9433 42.392 91.944 42.818C91.9373 42.9707 91.9841 43.121 92.0763 43.2429C92.1685 43.3648 92.3003 43.4508 92.449 43.486L93.287 43.768C93.5839 43.8522 93.8424 44.0368 94.0183 44.2902C94.1943 44.5437 94.2769 44.8504 94.252 45.158C94.2669 45.3473 94.2424 45.5376 94.1801 45.7169C94.1178 45.8962 94.019 46.0607 93.89 46.2C93.5731 46.4599 93.1674 46.5862 92.759 46.552C92.4656 46.5503 92.1726 46.5332 91.881 46.501C91.6024 46.4752 91.3265 46.4263 91.056 46.355L91.083 45.655C91.5955 45.7658 92.1177 45.8194 92.642 45.815Z" fill="white"/>
<path d="M96.7 45.815C96.9189 45.8336 97.1375 45.7752 97.318 45.65C97.3864 45.5845 97.4394 45.5045 97.4729 45.4159C97.5065 45.3274 97.5198 45.2324 97.512 45.138C97.522 44.9732 97.4773 44.8098 97.385 44.673C97.2773 44.5477 97.1367 44.4552 96.979 44.406L96.105 44.114C95.8266 44.0321 95.585 43.8566 95.4211 43.6172C95.2571 43.3778 95.1808 43.0892 95.205 42.8C95.1938 42.6199 95.2187 42.4393 95.2783 42.2689C95.3378 42.0986 95.4309 41.9418 95.552 41.808C95.696 41.6811 95.864 41.5845 96.0462 41.5241C96.2283 41.4636 96.4207 41.4404 96.612 41.456C97.1075 41.447 97.6019 41.5069 98.081 41.634L98.064 42.32C97.6257 42.2231 97.1779 42.1758 96.729 42.179C96.2477 42.179 96.0073 42.392 96.008 42.818C96.0015 42.9707 96.0484 43.1208 96.1405 43.2427C96.2327 43.3646 96.3644 43.4506 96.513 43.486L97.351 43.768C97.6479 43.8522 97.9064 44.0368 98.0823 44.2902C98.2583 44.5437 98.3409 44.8504 98.316 45.158C98.3298 45.3469 98.3044 45.5366 98.2414 45.7152C98.1784 45.8938 98.0792 46.0575 97.95 46.196C97.6331 46.4559 97.2274 46.5822 96.819 46.548C96.5256 46.5463 96.2326 46.5292 95.941 46.497C95.6624 46.4712 95.3865 46.4223 95.116 46.351L95.143 45.651C95.6552 45.7617 96.178 45.8154 96.702 45.811" fill="white"/>
<path d="M99.358 42.47C99.447 42.1624 99.6502 41.9005 99.926 41.738C100.346 41.5523 100.801 41.4564 101.26 41.4564C101.719 41.4564 102.174 41.5523 102.594 41.738C102.871 41.9033 103.075 42.1663 103.167 42.475C103.262 42.851 103.306 43.2382 103.297 43.626V44.4C103.306 44.7842 103.264 45.1679 103.172 45.541C103.08 45.8476 102.875 46.1078 102.599 46.269C102.187 46.4836 101.724 46.5811 101.26 46.551C100.829 46.5731 100.399 46.498 100.002 46.331C99.7209 46.1928 99.5055 45.9496 99.402 45.654C99.276 45.2487 99.2196 44.8251 99.235 44.401V43.63C99.2258 43.2411 99.2685 42.8526 99.362 42.475M100.128 45.2C100.176 45.3831 100.294 45.5399 100.457 45.636C100.708 45.7692 100.991 45.8294 101.274 45.81C101.541 45.8261 101.808 45.7727 102.049 45.655C102.212 45.5649 102.335 45.4157 102.391 45.238C102.452 45.0099 102.48 44.774 102.472 44.538V43.466C102.48 43.2299 102.452 42.9941 102.391 42.766C102.335 42.5882 102.212 42.4388 102.049 42.349C101.808 42.2309 101.541 42.1771 101.274 42.193C100.997 42.1745 100.72 42.233 100.474 42.362C100.312 42.4592 100.193 42.6138 100.14 42.795C100.087 43.0227 100.063 43.2563 100.069 43.49V44.514C100.064 44.7413 100.085 44.9685 100.132 45.191" fill="white"/>
<path d="M110.347 43.43V44.575C110.364 45.0731 110.229 45.5645 109.96 45.984C109.77 46.199 109.53 46.3638 109.261 46.4637C108.992 46.5637 108.702 46.5957 108.418 46.557C108.015 46.5537 107.614 46.4938 107.228 46.379V48.07H106.4V41.551H107.184V42.292C107.618 41.8225 108.207 41.5256 108.843 41.456C109.846 41.456 110.348 42.1137 110.348 43.429M109.51 43.419C109.523 43.1146 109.467 42.8113 109.348 42.531C109.29 42.4194 109.199 42.3279 109.088 42.2685C108.977 42.2091 108.851 42.1845 108.726 42.198C108.451 42.1995 108.183 42.2827 107.955 42.437C107.691 42.6146 107.447 42.8212 107.229 43.053V45.609C107.41 45.6782 107.597 45.7301 107.788 45.764C107.986 45.803 108.187 45.8234 108.388 45.825C108.651 45.8446 108.913 45.7802 109.136 45.641C109.287 45.5348 109.396 45.3786 109.443 45.2C109.488 44.9945 109.509 44.7844 109.506 44.574L109.51 43.419Z" fill="white"/>
<path d="M114.395 41.54C114.733 41.582 115.068 41.6512 115.395 41.747V46.463H114.621V45.7C114.357 45.9338 114.068 46.1373 113.759 46.307C113.496 46.4546 113.2 46.5337 112.898 46.537C112.672 46.5629 112.443 46.5306 112.233 46.4431C112.023 46.3555 111.839 46.2158 111.698 46.037C111.454 45.623 111.338 45.1459 111.364 44.666V43.437C111.336 42.9227 111.477 42.4134 111.764 41.986C111.944 41.7909 112.168 41.6412 112.417 41.5491C112.666 41.457 112.933 41.4251 113.197 41.456C113.598 41.4565 113.999 41.4842 114.397 41.539M112.38 45.5C112.456 45.6064 112.559 45.6904 112.679 45.7432C112.799 45.7959 112.93 45.8156 113.06 45.8C113.357 45.7603 113.644 45.6618 113.902 45.5102C114.161 45.3586 114.387 45.1569 114.567 44.917V42.31C114.163 42.2313 113.753 42.1908 113.341 42.189C113.068 42.1672 112.795 42.2377 112.566 42.389C112.413 42.5008 112.303 42.6618 112.255 42.845C112.214 43.0299 112.195 43.2187 112.197 43.408V44.676C112.183 44.962 112.247 45.2465 112.382 45.499" fill="white"/>
<path d="M119.173 41.484V42.33C119.016 42.317 118.926 42.311 118.903 42.311C118.683 42.3204 118.473 42.4007 118.303 42.54C118.042 42.7544 117.807 42.9991 117.603 43.269V46.462H116.774V41.55H117.558V42.367C117.761 42.1066 118.003 41.8786 118.275 41.691C118.476 41.5541 118.713 41.479 118.956 41.475C119.039 41.475 119.115 41.475 119.181 41.484" fill="white"/>
<path d="M122.824 41.54C123.162 41.582 123.497 41.6512 123.824 41.747V46.463H123.05V45.7C122.786 45.9338 122.497 46.1373 122.188 46.307C121.925 46.4546 121.629 46.5337 121.327 46.537C121.101 46.5629 120.872 46.5306 120.662 46.4431C120.452 46.3555 120.268 46.2158 120.127 46.037C119.883 45.623 119.767 45.1459 119.793 44.666V43.437C119.765 42.9227 119.906 42.4134 120.193 41.986C120.373 41.7909 120.597 41.6412 120.846 41.5491C121.095 41.457 121.362 41.4251 121.626 41.456C122.027 41.4565 122.428 41.4842 122.826 41.539M120.811 45.499C120.887 45.6054 120.99 45.6894 121.11 45.7422C121.23 45.7949 121.361 45.8146 121.491 45.799C121.788 45.7603 122.075 45.6628 122.334 45.5123C122.593 45.3617 122.819 45.161 123 44.922V42.31C122.596 42.2313 122.186 42.1908 121.774 42.189C121.501 42.1674 121.228 42.2378 120.999 42.389C120.846 42.5007 120.736 42.6618 120.688 42.845C120.648 43.0299 120.628 43.2187 120.63 43.408V44.676C120.616 44.962 120.68 45.2465 120.815 45.499" fill="white"/>
<path d="M129.5 46.454C129.344 46.4857 129.185 46.5078 129.026 46.52C128.818 46.539 128.655 46.548 128.535 46.548C128.289 46.565 128.043 46.5026 127.835 46.37C127.674 46.248 127.561 46.0736 127.515 45.877C127.455 45.6103 127.428 45.3373 127.434 45.064V42.3H126.614V41.558H127.434V40.338H128.254V41.559H129.48V42.3H128.254V44.987C128.239 45.2063 128.284 45.4257 128.385 45.621C128.434 45.6898 128.5 45.7445 128.577 45.7796C128.654 45.8147 128.739 45.829 128.823 45.821C128.906 45.821 129.022 45.8167 129.17 45.808C129.274 45.8036 129.377 45.7926 129.48 45.775L129.5 46.454Z" fill="white"/>
<path d="M130.559 42.47C130.649 42.1629 130.852 41.9012 131.127 41.738C131.547 41.5521 132.002 41.4561 132.462 41.4561C132.921 41.4561 133.376 41.5521 133.796 41.738C134.073 41.903 134.277 42.1662 134.368 42.475C134.464 42.8509 134.508 43.2381 134.499 43.626V44.4C134.508 44.7843 134.465 45.1681 134.372 45.541C134.281 45.8477 134.077 46.1081 133.8 46.269C133.388 46.4836 132.925 46.5811 132.461 46.551C132.03 46.5733 131.6 46.4981 131.203 46.331C130.922 46.1928 130.706 45.9496 130.603 45.654C130.477 45.2488 130.42 44.8252 130.435 44.401V43.63C130.426 43.2411 130.469 42.8526 130.562 42.475M131.329 45.2C131.377 45.3831 131.495 45.5399 131.658 45.636C131.909 45.7692 132.192 45.8294 132.475 45.81C132.742 45.8263 133.009 45.7729 133.249 45.655C133.413 45.5653 133.536 45.4159 133.592 45.238C133.653 45.0098 133.68 44.774 133.673 44.538V43.466C133.68 43.23 133.653 42.9942 133.592 42.766C133.536 42.5879 133.413 42.4385 133.249 42.349C133.009 42.2308 132.742 42.177 132.475 42.193C132.198 42.1745 131.921 42.233 131.675 42.362C131.513 42.4592 131.394 42.6138 131.341 42.795C131.288 43.0227 131.264 43.2563 131.27 43.49V44.514C131.265 44.7413 131.286 44.9685 131.333 45.191" fill="white"/>
<path d="M139.493 40.132V46.473H138.718V45.7C138.263 46.1822 137.648 46.4828 136.988 46.546C136.758 46.5726 136.525 46.5364 136.313 46.4411C136.102 46.3459 135.921 46.1952 135.788 46.005C135.551 45.5728 135.437 45.0836 135.459 44.591V43.447C135.437 42.9427 135.572 42.444 135.846 42.02C136.018 41.8182 136.238 41.6621 136.485 41.5654C136.732 41.4688 136.999 41.4346 137.262 41.466C137.733 41.4643 138.204 41.5048 138.668 41.587V40.132H139.493ZM136.351 45.186C136.381 45.3562 136.465 45.5124 136.59 45.632C136.751 45.7663 136.957 45.8324 137.166 45.816C137.44 45.8153 137.707 45.7317 137.933 45.576C138.202 45.3926 138.45 45.1804 138.672 44.943V42.358C138.271 42.2577 137.86 42.2044 137.447 42.199C137.276 42.1742 137.102 42.1926 136.941 42.2526C136.779 42.3125 136.635 42.412 136.522 42.542C136.364 42.8105 136.287 43.1189 136.301 43.43V44.547C136.298 44.7611 136.315 44.975 136.351 45.186Z" fill="white"/>
<path d="M140.836 42.47C140.926 42.1628 141.129 41.9012 141.404 41.738C141.824 41.5521 142.279 41.4561 142.738 41.4561C143.198 41.4561 143.653 41.5521 144.073 41.738C144.35 41.903 144.554 42.1662 144.645 42.475C144.741 42.8509 144.785 43.2381 144.776 43.626V44.4C144.785 44.7843 144.742 45.1681 144.649 45.541C144.558 45.8477 144.353 46.1081 144.077 46.269C143.665 46.4836 143.202 46.5811 142.738 46.551C142.307 46.5733 141.877 46.4981 141.48 46.331C141.199 46.1928 140.983 45.9496 140.88 45.654C140.754 45.2488 140.697 44.8252 140.712 44.401V43.63C140.703 43.2411 140.746 42.8526 140.839 42.475M141.606 45.2C141.654 45.3831 141.772 45.5399 141.935 45.636C142.185 45.769 142.468 45.8293 142.751 45.81C143.018 45.8263 143.285 45.7729 143.525 45.655C143.689 45.5653 143.812 45.4159 143.868 45.238C143.929 45.0098 143.956 44.774 143.949 44.538V43.466C143.956 43.23 143.929 42.9942 143.868 42.766C143.812 42.5879 143.689 42.4385 143.525 42.349C143.285 42.2308 143.018 42.177 142.751 42.193C142.474 42.1744 142.197 42.2329 141.951 42.362C141.789 42.4592 141.67 42.6138 141.617 42.795C141.564 43.0227 141.54 43.2563 141.546 43.49V44.514C141.541 44.7413 141.562 44.9685 141.609 45.191" fill="white"/>
<path d="M147.327 45.815C147.546 45.8338 147.765 45.7754 147.945 45.65C148.014 45.5846 148.067 45.5047 148.1 45.4161C148.134 45.3274 148.147 45.2324 148.139 45.138C148.149 44.9735 148.105 44.8103 148.014 44.673C147.906 44.5477 147.765 44.4552 147.607 44.406L146.733 44.114C146.455 44.0321 146.213 43.8566 146.049 43.6172C145.885 43.3778 145.809 43.0892 145.833 42.8C145.822 42.6199 145.847 42.4393 145.906 42.2689C145.966 42.0986 146.059 41.9418 146.18 41.808C146.324 41.6812 146.492 41.5847 146.674 41.5242C146.856 41.4638 147.049 41.4405 147.24 41.456C147.736 41.447 148.23 41.5069 148.709 41.634L148.692 42.32C148.254 42.223 147.806 42.1757 147.357 42.179C146.876 42.179 146.635 42.392 146.636 42.818C146.63 42.9707 146.676 43.1208 146.769 43.2427C146.861 43.3646 146.992 43.4506 147.141 43.486L147.979 43.768C148.276 43.8522 148.534 44.0368 148.71 44.2902C148.886 44.5437 148.969 44.8504 148.944 45.158C148.958 45.3467 148.933 45.5363 148.87 45.7149C148.807 45.8935 148.709 46.0572 148.58 46.196C148.263 46.4559 147.857 46.5821 147.448 46.548C147.155 46.5463 146.862 46.5292 146.57 46.497C146.291 46.471 146.016 46.4222 145.745 46.351L145.772 45.651C146.285 45.7617 146.808 45.8154 147.332 45.811" fill="white"/>
<path d="M151.889 42.47C151.979 42.1628 152.182 41.9012 152.457 41.738C152.877 41.5521 153.332 41.4561 153.792 41.4561C154.251 41.4561 154.706 41.5521 155.126 41.738C155.403 41.903 155.607 42.1662 155.698 42.475C155.794 42.8509 155.838 43.2381 155.829 43.626V44.4C155.838 44.7843 155.795 45.1681 155.702 45.541C155.611 45.8477 155.406 46.1081 155.13 46.269C154.718 46.4836 154.255 46.5811 153.791 46.551C153.36 46.5731 152.93 46.498 152.533 46.331C152.252 46.1928 152.036 45.9496 151.933 45.654C151.807 45.2488 151.75 44.8252 151.765 44.401V43.63C151.756 43.2411 151.799 42.8526 151.892 42.475M152.659 45.2C152.707 45.3831 152.825 45.5399 152.988 45.636C153.239 45.7692 153.522 45.8294 153.805 45.81C154.072 45.8263 154.339 45.7729 154.579 45.655C154.743 45.5653 154.866 45.4159 154.922 45.238C154.983 45.0098 155.01 44.774 155.003 44.538V43.466C155.01 43.23 154.983 42.9942 154.922 42.766C154.866 42.5879 154.743 42.4385 154.579 42.349C154.339 42.2308 154.072 42.177 153.805 42.193C153.528 42.1745 153.251 42.233 153.005 42.362C152.843 42.4592 152.724 42.6138 152.671 42.795C152.618 43.0227 152.594 43.2563 152.6 43.49V44.514C152.595 44.7413 152.616 44.9685 152.663 45.191" fill="white"/>
<path d="M158.38 45.815C158.6 45.8342 158.819 45.7758 159 45.65C159.069 45.5846 159.122 45.5047 159.155 45.4161C159.189 45.3274 159.202 45.2324 159.194 45.138C159.204 44.9735 159.16 44.8103 159.069 44.673C158.961 44.548 158.821 44.4555 158.663 44.406L157.788 44.114C157.51 44.0321 157.268 43.8566 157.104 43.6172C156.94 43.3778 156.864 43.0892 156.888 42.8C156.877 42.6199 156.902 42.4393 156.961 42.2689C157.021 42.0986 157.114 41.9418 157.235 41.808C157.379 41.6812 157.547 41.5847 157.729 41.5242C157.911 41.4638 158.104 41.4405 158.295 41.456C158.791 41.447 159.285 41.5069 159.764 41.634L159.747 42.32C159.309 42.223 158.861 42.1757 158.412 42.179C157.931 42.179 157.69 42.392 157.691 42.818C157.685 42.9707 157.731 43.1208 157.824 43.2427C157.916 43.3646 158.047 43.4506 158.196 43.486L159.034 43.768C159.331 43.8522 159.589 44.0368 159.765 44.2902C159.941 44.5437 160.024 44.8504 159.999 45.158C160.013 45.3467 159.988 45.5363 159.925 45.7149C159.862 45.8935 159.764 46.0572 159.635 46.196C159.318 46.4559 158.912 46.5821 158.503 46.548C158.21 46.5463 157.917 46.5292 157.625 46.497C157.346 46.471 157.071 46.4222 156.8 46.351L156.827 45.651C157.339 45.7617 157.863 45.8154 158.387 45.811" fill="white"/>
<path d="M164.339 45.815C164.558 45.8338 164.777 45.7754 164.957 45.65C165.026 45.5846 165.079 45.5047 165.112 45.4161C165.146 45.3274 165.159 45.2324 165.151 45.138C165.161 44.9735 165.117 44.8103 165.026 44.673C164.918 44.548 164.778 44.4555 164.62 44.406L163.745 44.114C163.467 44.0321 163.225 43.8566 163.061 43.6172C162.897 43.3778 162.821 43.0892 162.845 42.8C162.834 42.6199 162.859 42.4393 162.918 42.2689C162.978 42.0986 163.071 41.9418 163.192 41.808C163.336 41.6811 163.504 41.5845 163.686 41.5241C163.868 41.4636 164.061 41.4404 164.252 41.456C164.748 41.447 165.242 41.5069 165.721 41.634L165.704 42.32C165.266 42.223 164.818 42.1757 164.369 42.179C163.888 42.179 163.647 42.392 163.648 42.818C163.642 42.9707 163.688 43.1208 163.781 43.2427C163.873 43.3646 164.004 43.4506 164.153 43.486L164.991 43.768C165.288 43.8522 165.546 44.0368 165.722 44.2902C165.898 44.5437 165.981 44.8504 165.956 45.158C165.97 45.3467 165.945 45.5363 165.882 45.7149C165.819 45.8935 165.721 46.0572 165.592 46.196C165.275 46.4559 164.869 46.5821 164.46 46.548C164.167 46.5463 163.874 46.5292 163.582 46.497C163.303 46.471 163.028 46.4222 162.757 46.351L162.784 45.651C163.297 45.7618 163.82 45.8154 164.344 45.811" fill="white"/>
<path d="M170.668 44.293H167.7V44.519C167.693 44.7623 167.72 45.0053 167.781 45.241C167.807 45.33 167.85 45.4129 167.908 45.4849C167.966 45.5569 168.038 45.6164 168.12 45.66C168.358 45.7711 168.619 45.8213 168.881 45.806C169.398 45.8114 169.913 45.7482 170.413 45.618L170.44 46.318C170.218 46.4011 169.989 46.4624 169.755 46.501C169.466 46.5455 169.173 46.5659 168.88 46.562C168.426 46.5916 167.973 46.4972 167.568 46.289C167.293 46.1295 167.09 45.8707 167 45.566C166.902 45.1795 166.858 44.7815 166.869 44.383V43.622C166.858 43.2213 166.905 42.8212 167.009 42.434C167.1 42.1331 167.301 41.8776 167.572 41.719C167.953 41.5244 168.38 41.4353 168.807 41.461C169.244 41.4282 169.681 41.5365 170.052 41.77C170.307 41.9543 170.488 42.2245 170.56 42.531C170.635 42.9021 170.669 43.2804 170.66 43.659L170.668 44.293ZM167.702 43.654H169.902V43.476C169.907 43.2539 169.887 43.0319 169.844 42.814C169.8 42.6354 169.694 42.4784 169.544 42.372C169.325 42.2332 169.067 42.1687 168.809 42.188C168.56 42.171 168.311 42.2266 168.093 42.348C167.937 42.4489 167.824 42.6044 167.777 42.784C167.719 43.0225 167.693 43.2677 167.7 43.513L167.702 43.654Z" fill="white"/>
<path d="M175.4 41.935C175.658 42.3543 175.78 42.8436 175.747 43.335V46.463H174.899V43.41C174.917 43.1014 174.861 42.7931 174.737 42.51C174.679 42.4083 174.593 42.3258 174.489 42.2725C174.385 42.2192 174.267 42.1974 174.151 42.21C173.882 42.2203 173.62 42.2995 173.39 42.44C173.092 42.612 172.822 42.8289 172.59 43.083V46.464H171.752V41.564H172.536V42.325C172.814 42.0744 173.119 41.857 173.447 41.677C173.705 41.5374 173.993 41.4633 174.286 41.461C174.497 41.4428 174.709 41.477 174.903 41.5606C175.097 41.6442 175.267 41.7745 175.399 41.94" fill="white"/>
<path d="M179.448 46.454C179.292 46.4857 179.133 46.5078 178.974 46.52C178.767 46.539 178.603 46.548 178.483 46.548C178.237 46.565 177.991 46.5026 177.783 46.37C177.622 46.248 177.509 46.0736 177.463 45.877C177.403 45.6103 177.376 45.3373 177.382 45.064V42.3H176.562V41.558H177.382V40.338H178.203V41.559H179.428V42.3H178.2V44.987C178.184 45.2062 178.229 45.4256 178.33 45.621C178.379 45.6898 178.445 45.7445 178.522 45.7796C178.599 45.8147 178.684 45.829 178.768 45.821C178.851 45.821 178.967 45.8167 179.115 45.808C179.219 45.8036 179.322 45.7926 179.425 45.775L179.448 46.454Z" fill="white"/>
<path d="M181.386 41.005H180.538V40.019H181.386V41.005ZM180.548 41.55H181.386V46.463H180.548V41.55Z" fill="white"/>
<path d="M186.552 40.132V46.473H185.777V45.7C185.322 46.1822 184.707 46.4828 184.047 46.546C183.817 46.5726 183.584 46.5364 183.372 46.4411C183.161 46.3459 182.98 46.1952 182.847 46.005C182.61 45.5728 182.496 45.0836 182.518 44.591V43.447C182.496 42.9427 182.631 42.444 182.905 42.02C183.077 41.8182 183.297 41.6621 183.544 41.5654C183.791 41.4688 184.058 41.4346 184.321 41.466C184.792 41.4643 185.263 41.5048 185.727 41.587V40.132H186.552ZM183.41 45.186C183.437 45.3763 183.538 45.5485 183.69 45.6661C183.842 45.7837 184.034 45.8375 184.225 45.816C184.499 45.8152 184.766 45.7315 184.992 45.576C185.261 45.3926 185.509 45.1804 185.731 44.943V42.358C185.33 42.2577 184.919 42.2044 184.506 42.199C184.335 42.1742 184.161 42.1926 184 42.2526C183.838 42.3125 183.694 42.412 183.581 42.542C183.423 42.8105 183.346 43.1189 183.36 43.43V44.547C183.357 44.7611 183.374 44.975 183.41 45.186Z" fill="white"/>
<path d="M187.9 42.47C187.99 42.1629 188.193 41.9012 188.468 41.738C188.888 41.5521 189.343 41.4561 189.803 41.4561C190.262 41.4561 190.717 41.5521 191.137 41.738C191.414 41.903 191.618 42.1662 191.709 42.475C191.805 42.8509 191.849 43.2381 191.84 43.626V44.4C191.849 44.7843 191.806 45.1681 191.713 45.541C191.622 45.8477 191.418 46.1082 191.141 46.269C190.729 46.4836 190.266 46.5811 189.802 46.551C189.371 46.5733 188.941 46.4981 188.544 46.331C188.263 46.1928 188.047 45.9496 187.944 45.654C187.818 45.2488 187.761 44.8252 187.776 44.401V43.63C187.767 43.2411 187.81 42.8526 187.903 42.475M188.67 45.2C188.718 45.3831 188.836 45.5399 188.999 45.636C189.25 45.7692 189.533 45.8294 189.816 45.81C190.083 45.8263 190.35 45.7729 190.59 45.655C190.754 45.5653 190.877 45.4159 190.933 45.238C190.994 45.0098 191.021 44.774 191.014 44.538V43.466C191.021 43.23 190.994 42.9942 190.933 42.766C190.877 42.5879 190.754 42.4385 190.59 42.349C190.35 42.2308 190.083 42.177 189.816 42.193C189.539 42.1745 189.262 42.233 189.016 42.362C188.854 42.4592 188.735 42.6138 188.682 42.795C188.629 43.0227 188.605 43.2563 188.611 43.49V44.514C188.606 44.7413 188.627 44.9685 188.674 45.191" fill="white"/>
<path d="M194.386 45.815C194.604 45.8326 194.821 45.7743 195 45.65C195.069 45.5847 195.122 45.5047 195.155 45.4161C195.189 45.3275 195.202 45.2324 195.194 45.138C195.204 44.9735 195.16 44.8103 195.069 44.673C194.961 44.5477 194.82 44.4553 194.662 44.406L193.788 44.114C193.51 44.0321 193.268 43.8566 193.104 43.6172C192.94 43.3778 192.864 43.0892 192.888 42.8C192.877 42.6199 192.902 42.4393 192.961 42.2689C193.021 42.0986 193.114 41.9418 193.235 41.808C193.379 41.6811 193.547 41.5845 193.729 41.5241C193.911 41.4636 194.104 41.4404 194.295 41.456C194.791 41.447 195.285 41.5069 195.764 41.634L195.747 42.32C195.309 42.223 194.861 42.1757 194.412 42.179C193.931 42.179 193.69 42.392 193.691 42.818C193.685 42.9707 193.731 43.1208 193.824 43.2427C193.916 43.3646 194.047 43.4506 194.196 43.486L195.034 43.768C195.331 43.8522 195.589 44.0368 195.765 44.2902C195.941 44.5437 196.024 44.8504 195.999 45.158C196.013 45.3467 195.988 45.5363 195.925 45.7149C195.862 45.8935 195.764 46.0572 195.635 46.196C195.318 46.4559 194.912 46.5821 194.503 46.548C194.21 46.5463 193.917 46.5292 193.625 46.497C193.346 46.4712 193.07 46.4223 192.8 46.351L192.827 45.651C193.339 45.7617 193.862 45.8154 194.386 45.811" fill="white"/>
<path d="M62.22 24.482L59.371 27.782L55.138 32.691L52.289 35.991L43.4 46.281L42.6 47.201C42.0211 47.7591 41.3427 48.2038 40.6 48.512C39.8344 48.8291 39.0137 48.9922 38.185 48.992C37.3571 48.9939 36.5371 48.8307 35.773 48.512C35.0467 48.213 34.3819 47.7824 33.812 47.242L33.242 46.583C34.8124 46.4169 36.3327 45.9338 37.711 45.163C38.8821 44.5056 39.9358 43.658 40.829 42.655C40.916 42.555 40.999 42.464 41.083 42.362L43.859 39.144L49.442 32.679L52.287 29.379L56.524 24.474L52.29 19.577L49.445 16.277L43.875 9.825L41.057 6.566C40.992 6.49 40.927 6.414 40.857 6.337C39.9587 5.32101 38.8959 4.46337 37.713 3.8C36.3365 3.03029 34.8183 2.54757 33.25 2.381L33.64 1.926C34.2539 1.29952 34.9888 0.804479 35.8 0.470999C37.3335 -0.158841 39.0535 -0.158841 40.587 0.470999C41.4282 0.816907 42.1861 1.33816 42.81 2L43.216 2.471L52.29 12.982L55.139 16.282L59.372 21.182L62.22 24.482Z" fill="white"/>
<path d="M45.208 21.186L43.232 18.9L38.4 13.3L33.953 8.15L31.8 5.646V5.653C31.747 5.586 31.692 5.522 31.636 5.458C31.4608 5.26053 31.2742 5.07354 31.077 4.898L31.117 4.853L29.217 2.653H29.208C29.1829 2.6139 29.1548 2.57679 29.124 2.542L29.119 2.535L28.619 1.946C28.609 1.936 28.603 1.93 28.594 1.92C27.9762 1.29516 27.2379 0.802208 26.424 0.470998C24.8902 -0.159115 23.1698 -0.159115 21.636 0.470998C20.816 0.80615 20.0747 1.3081 19.459 1.945C19.441 1.964 19.424 1.981 19.409 2L19 2.473C18.995 2.48 18.988 2.482 18.985 2.489L16.424 5.459L9.924 12.983L7.08 16.283L2.849 21.186L0 24.482L2.849 27.782L7.083 32.689L9.927 35.984L18.819 46.284L19.619 47.207C20.1977 47.7661 20.8761 48.2118 21.619 48.521C22.3846 48.8369 23.2048 48.9996 24.033 49C24.8613 49.0015 25.6816 48.8379 26.446 48.519C27.172 48.2194 27.8367 47.7889 28.407 47.249L28.416 47.239L29.216 46.313L29.278 46.24L31.115 44.116L31.072 44.068C31.3331 43.8398 31.5739 43.5896 31.792 43.32V43.327L33.957 40.819L38.376 35.7L43.234 30.07L45.208 27.782L48.057 24.482L45.208 21.186ZM26.51 42.848C26.2286 43.2629 25.9004 43.644 25.532 43.984L25.523 43.994C25.377 44.128 25.229 44.251 25.071 44.372L25.061 44.379C24.7553 44.6069 24.3826 44.7269 24.0014 44.7204C23.6201 44.7139 23.2518 44.5812 22.954 44.343C22.8007 44.223 22.6527 44.097 22.51 43.965L22.501 43.955C22.1568 43.6342 21.8486 43.2767 21.582 42.889L18.357 39.153L15.524 35.872L12.775 32.685L9.93 29.385L5.694 24.482L9.93 19.577L12.775 16.277L15.525 13.1L18.346 9.832L21.546 6.124L22.539 4.975C22.673 4.851 22.813 4.732 22.958 4.621C23.2562 4.38543 23.6242 4.25548 24.0042 4.2515C24.3843 4.24752 24.7549 4.36973 25.058 4.599L25.068 4.606C25.2196 4.72178 25.3651 4.84527 25.504 4.976L26.5 6.1C26.5062 6.1055 26.5116 6.11191 26.516 6.119L28.266 8.149L27.607 8.914L23.816 13.3L22.483 14.844L20.983 16.583L20.336 17.331L17.01 21.186L14.165 24.486L17.01 27.786L20.341 31.643L20.984 32.389L22.484 34.126L23.844 35.7L27.604 40.058L28.263 40.819L26.51 42.848ZM40.934 26.138L32.534 35.865L31.105 37.52L26.67 32.383L22.24 27.245L19.855 24.482L22.236 21.726L26.673 16.583L31.108 11.449L32.534 13.1L40.934 22.83L42.363 24.485L40.934 26.138Z" fill="white"/>
</g>
</svg>
