<svg width="14" height="14" viewBox="0 0 14 14" fill="none" xmlns="http://www.w3.org/2000/svg">
<mask id="mask0_1_389" style="mask-type:luminance" maskUnits="userSpaceOnUse" x="0" y="0" width="14" height="14">
<path d="M14 0H0V14H14V0Z" fill="white"/>
</mask>
<g mask="url(#mask0_1_389)">
<path fill-rule="evenodd" clip-rule="evenodd" d="M9.10004 4.21004H7.70004V9.79004H9.10004V4.21004ZM6.30904 4.21004H4.90004V9.79004H6.31404L6.30904 4.21004ZM7.00004 4.14309e-05C8.38451 4.14309e-05 9.73789 0.410584 10.889 1.17975C12.0402 1.94892 12.9374 3.04217 13.4672 4.32126C13.997 5.60034 14.1356 7.00781 13.8655 8.36567C13.5954 9.72354 12.9288 10.9708 11.9498 11.9498C10.9708 12.9288 9.72354 13.5954 8.36567 13.8655C7.00781 14.1356 5.60034 13.997 4.32126 13.4672C3.04217 12.9374 1.94892 12.0402 1.17975 10.889C0.410584 9.73789 4.14309e-05 8.38451 4.14309e-05 7.00004C-0.00312968 6.0799 0.175766 5.16822 0.526426 4.31751C0.877086 3.4668 1.39258 2.69387 2.04322 2.04322C2.69387 1.39258 3.4668 0.877086 4.31751 0.526426C5.16822 0.175766 6.0799 -0.00312968 7.00004 4.14309e-05Z" fill="white"/>
</g>
<path d="M1.83696e-05 6.99999C1.83696e-05 5.61552 0.410536 4.26216 1.17971 3.11101C1.94888 1.95987 3.0421 1.06264 4.32119 0.532828C5.60027 0.00301462 7.00775 -0.135584 8.36562 0.134513C9.72349 0.404609 10.9708 1.07126 11.9497 2.05022C12.9287 3.02919 13.5954 4.27646 13.8655 5.63433C14.1356 6.9922 13.997 8.39968 13.4672 9.67876C12.9374 10.9578 12.0402 12.0511 10.8891 12.8203C9.73791 13.5895 8.38449 14 7.00002 14C6.08017 14.0021 5.16898 13.8225 4.31874 13.4714C3.46851 13.1204 2.69598 12.6049 2.04555 11.9545C1.39512 11.304 0.879618 10.5315 0.528583 9.68127C0.177547 8.83103 -0.00209138 7.91984 1.83696e-05 6.99999ZM7.69997 9.78997H9.10707V4.20898H7.69997V9.78997ZM4.90004 9.78997H6.31899V4.20898H4.90004V9.78997Z" fill="#4361EE"/>
</svg>
